<svg width="24" height="24" viewBox="0 0 100 100" fill="none" xmlns="http://www.w3.org/2000/svg">
  <path d="M21.8864 32.0909V67H17.6591V36.5227H17.4545L8.93182 42.1818V37.8864L17.6591 32.0909H21.8864ZM33.5483 67.2159C32.8826 67.2159 32.3113 66.9775 31.8345 66.5007C31.3577 66.0239 31.1193 65.4527 31.1193 64.7869C31.1193 64.1212 31.3577 63.55 31.8345 63.0732C32.3113 62.5964 32.8826 62.358 33.5483 62.358C34.214 62.358 34.7853 62.5964 35.2621 63.0732C35.7389 63.55 35.9773 64.1212 35.9773 64.7869C35.9773 65.2277 35.8648 65.6326 35.6399 66.0014C35.424 66.3703 35.1316 66.6671 34.7628 66.892C34.4029 67.108 33.9981 67.2159 33.5483 67.2159ZM41.7887 67V64.4432L51.391 53.9318C52.5179 52.7008 53.4459 51.6307 54.1751 50.7216C54.9042 49.803 55.444 48.9413 55.7944 48.1364C56.1542 47.322 56.3342 46.4697 56.3342 45.5795C56.3342 44.5568 56.088 43.6714 55.5955 42.9233C55.1126 42.1752 54.4497 41.5975 53.6069 41.1903C52.7641 40.7831 51.8171 40.5795 50.766 40.5795C49.6486 40.5795 48.6732 40.8116 47.8398 41.2756C47.016 41.7301 46.3768 42.3693 45.9222 43.1932C45.4772 44.017 45.2546 44.983 45.2546 46.0909H41.9023C41.9023 44.3864 42.2953 42.8902 43.0813 41.6023C43.8673 40.3144 44.9374 39.3106 46.2915 38.5909C47.6552 37.8712 49.1845 37.5114 50.8796 37.5114C52.5842 37.5114 54.0946 37.8712 55.4109 38.5909C56.7272 39.3106 57.7594 40.2812 58.5075 41.5028C59.2556 42.7244 59.6296 44.0833 59.6296 45.5795C59.6296 46.6496 59.4355 47.696 59.0472 48.7188C58.6684 49.732 58.0056 50.8636 57.0586 52.1136C56.1211 53.3542 54.819 54.8693 53.1523 56.6591L46.6183 63.6477V63.875H60.141V67H41.7887ZM68.2319 67.2159C67.5662 67.2159 66.9949 66.9775 66.5181 66.5007C66.0413 66.0239 65.8029 65.4527 65.8029 64.7869C65.8029 64.1212 66.0413 63.55 66.5181 63.0732C66.9949 62.5964 67.5662 62.358 68.2319 62.358C68.8976 62.358 69.4689 62.5964 69.9457 63.0732C70.4225 63.55 70.6609 64.1212 70.6609 64.7869C70.6609 65.2277 70.5484 65.6326 70.3235 66.0014C70.1076 66.3703 69.8152 66.6671 69.4464 66.892C69.0865 67.108 68.6817 67.2159 68.2319 67.2159ZM83.7337 67.3182C82.2337 67.3182 80.8965 67.0606 79.7223 66.5455C78.5556 66.0303 77.6276 65.3144 76.9382 64.3977C76.2564 63.4735 75.8852 62.4015 75.8246 61.1818H78.6882C78.7488 61.9318 79.0064 62.5795 79.4609 63.125C79.9155 63.6629 80.5102 64.0795 81.245 64.375C81.9799 64.6705 82.7943 64.8182 83.6882 64.8182C84.6882 64.8182 85.5746 64.6439 86.3473 64.2955C87.12 63.947 87.7261 63.4621 88.1655 62.8409C88.6049 62.2197 88.8246 61.5 88.8246 60.6818C88.8246 59.8258 88.6125 59.072 88.1882 58.4205C87.764 57.7614 87.1428 57.2462 86.3246 56.875C85.5064 56.5038 84.5064 56.3182 83.3246 56.3182H81.4609V53.8182H83.3246C84.2488 53.8182 85.0594 53.6515 85.7564 53.3182C86.4609 52.9848 87.0102 52.5152 87.4041 51.9091C87.8056 51.303 88.0064 50.5909 88.0064 49.7727C88.0064 48.9848 87.8322 48.2992 87.4837 47.7159C87.1352 47.1326 86.6428 46.678 86.0064 46.3523C85.3776 46.0265 84.6352 45.8636 83.7791 45.8636C82.9761 45.8636 82.2185 46.0114 81.5064 46.3068C80.8018 46.5947 80.2261 47.0152 79.7791 47.5682C79.3321 48.1136 79.0897 48.7727 79.0518 49.5455H76.3246C76.37 48.3258 76.7375 47.2576 77.4268 46.3409C78.1162 45.4167 79.0178 44.697 80.1314 44.1818C81.2526 43.6667 82.4837 43.4091 83.8246 43.4091C85.264 43.4091 86.4988 43.7008 87.5291 44.2841C88.5594 44.8598 89.3511 45.6212 89.9041 46.5682C90.4572 47.5152 90.7337 48.5379 90.7337 49.6364C90.7337 50.947 90.389 52.0644 89.6996 52.9886C89.0178 53.9129 88.0897 54.553 86.9155 54.9091V55.0909C88.3852 55.3333 89.5329 55.9583 90.3587 56.9659C91.1844 57.9659 91.5973 59.2045 91.5973 60.6818C91.5973 61.947 91.2526 63.0833 90.5632 64.0909C89.8814 65.0909 88.9496 65.8788 87.7678 66.4545C86.5859 67.0303 85.2412 67.3182 83.7337 67.3182Z" fill="black"/>
  <path d="M21.8864 32.0909H22.8864V31.0909H21.8864V32.0909ZM21.8864 67V68H22.8864V67H21.8864ZM17.6591 67H16.6591V68H17.6591V67ZM17.6591 36.5227H18.6591V35.5227H17.6591V36.5227ZM17.4545 36.5227V35.5227H17.1528L16.9014 35.6897L17.4545 36.5227ZM8.93182 42.1818H7.93182V44.0462L9.48498 43.0149L8.93182 42.1818ZM8.93182 37.8864L8.37862 37.0533L7.93182 37.35V37.8864H8.93182ZM17.6591 32.0909V31.0909H17.3573L17.1059 31.2579L17.6591 32.0909ZM20.8864 32.0909V67H22.8864V32.0909H20.8864ZM21.8864 66H17.6591V68H21.8864V66ZM18.6591 67V36.5227H16.6591V67H18.6591ZM17.6591 35.5227H17.4545V37.5227H17.6591V35.5227ZM16.9014 35.6897L8.37866 41.3487L9.48498 43.0149L18.0077 37.3558L16.9014 35.6897ZM9.93182 42.1818V37.8864H7.93182V42.1818H9.93182ZM9.48502 38.7194L18.2123 32.924L17.1059 31.2579L8.37862 37.0533L9.48502 38.7194ZM17.6591 33.0909H21.8864V31.0909H17.6591V33.0909ZM31.8345 66.5007L32.5416 65.7936L32.5416 65.7936L31.8345 66.5007ZM31.8345 63.0732L31.1274 62.366L31.8345 63.0732ZM35.2621 63.0732L35.9692 62.366L35.9692 62.366L35.2621 63.0732ZM35.6399 66.0014L34.7861 65.4808L34.7814 65.4885L34.7769 65.4962L35.6399 66.0014ZM34.7628 66.892L35.2773 67.7496L35.2834 67.7458L34.7628 66.892ZM33.5483 66.2159C33.1516 66.2159 32.8336 66.0856 32.5416 65.7936L31.1274 67.2078C31.789 67.8694 32.6135 68.2159 33.5483 68.2159V66.2159ZM32.5416 65.7936C32.2496 65.5016 32.1193 65.1836 32.1193 64.7869H30.1193C30.1193 65.7217 30.4658 66.5462 31.1274 67.2078L32.5416 65.7936ZM32.1193 64.7869C32.1193 64.3902 32.2496 64.0722 32.5416 63.7803L31.1274 62.366C30.4658 63.0277 30.1193 63.8522 30.1193 64.7869H32.1193ZM32.5416 63.7803C32.8336 63.4883 33.1516 63.358 33.5483 63.358V61.358C32.6135 61.358 31.789 61.7044 31.1274 62.366L32.5416 63.7803ZM33.5483 63.358C33.945 63.358 34.263 63.4883 34.555 63.7803L35.9692 62.366C35.3076 61.7044 34.483 61.358 33.5483 61.358V63.358ZM34.555 63.7803C34.8469 64.0722 34.9773 64.3902 34.9773 64.7869H36.9773C36.9773 63.8522 36.6308 63.0277 35.9692 62.366L34.555 63.7803ZM34.9773 64.7869C34.9773 65.048 34.9134 65.2721 34.7861 65.4808L36.4937 66.522C36.8163 65.993 36.9773 65.4075 36.9773 64.7869H34.9773ZM34.7769 65.4962C34.6455 65.7208 34.4714 65.8985 34.2422 66.0382L35.2834 67.7458C35.7919 67.4358 36.2025 67.0198 36.5029 66.5066L34.7769 65.4962ZM34.2483 66.0346C34.0551 66.1505 33.8304 66.2159 33.5483 66.2159V68.2159C34.1658 68.2159 34.7508 68.0654 35.2773 67.7495L34.2483 66.0346ZM41.7887 67H40.7887V68H41.7887V67ZM41.7887 64.4432L41.0504 63.7687L40.7887 64.0552V64.4432H41.7887ZM51.391 53.9318L50.6534 53.2566L50.6527 53.2574L51.391 53.9318ZM54.1751 50.7216L54.9552 51.3473L54.9583 51.3433L54.1751 50.7216ZM55.7944 48.1364L54.8797 47.7322L54.8775 47.7372L55.7944 48.1364ZM55.5955 42.9233L54.7554 43.4657L54.7602 43.4731L55.5955 42.9233ZM53.6069 41.1903L54.0419 40.2899L54.0419 40.2899L53.6069 41.1903ZM47.8398 41.2756L48.3229 42.1512L48.3263 42.1493L47.8398 41.2756ZM45.9222 43.1932L45.0466 42.7101L45.0424 42.7179L45.9222 43.1932ZM45.2546 46.0909V47.0909H46.2546V46.0909H45.2546ZM41.9023 46.0909H40.9023V47.0909H41.9023V46.0909ZM43.0813 41.6023L43.9349 42.1232L43.9349 42.1232L43.0813 41.6023ZM46.2915 38.5909L45.8248 37.7065L45.8222 37.7079L46.2915 38.5909ZM55.4109 38.5909L55.8906 37.7135L55.8906 37.7135L55.4109 38.5909ZM58.5075 41.5028L57.6547 42.0251L58.5075 41.5028ZM59.0472 48.7188L58.1123 48.3638L58.1105 48.3686L59.0472 48.7188ZM57.0586 52.1136L56.2615 51.5098L56.2608 51.5107L57.0586 52.1136ZM53.1523 56.6591L53.8828 57.342L53.8842 57.3406L53.1523 56.6591ZM46.6183 63.6477L45.8878 62.9648L45.6183 63.2531V63.6477H46.6183ZM46.6183 63.875H45.6183V64.875H46.6183V63.875ZM60.141 63.875H61.141V62.875H60.141V63.875ZM60.141 67V68H61.141V67H60.141ZM42.7887 67V64.4432H40.7887V67H42.7887ZM42.527 65.1176L52.1293 54.6063L50.6527 53.2574L41.0504 63.7687L42.527 65.1176ZM52.1286 54.607C53.2645 53.3661 54.208 52.2788 54.9551 51.3473L53.395 50.0959C52.6838 50.9825 51.7713 52.0354 50.6534 53.2566L52.1286 54.607ZM54.9583 51.3433C55.7246 50.3779 56.3168 49.4417 56.7113 48.5355L54.8775 47.7372C54.5712 48.4409 54.0838 49.2281 53.3918 50.0999L54.9583 51.3433ZM56.7091 48.5405C57.1252 47.5988 57.3342 46.6089 57.3342 45.5795H55.3342C55.3342 46.3305 55.1833 47.0451 54.8797 47.7322L56.7091 48.5405ZM57.3342 45.5795C57.3342 44.3899 57.0454 43.3071 56.4308 42.3735L54.7602 43.4731C55.1305 44.0357 55.3342 44.7237 55.3342 45.5795H57.3342ZM56.4357 42.3809C55.8479 41.4705 55.0412 40.7727 54.0419 40.2899L53.1719 42.0908C53.8582 42.4223 54.3772 42.8799 54.7554 43.4657L56.4357 42.3809ZM54.0419 40.2899C53.0476 39.8095 51.9491 39.5795 50.766 39.5795V41.5795C51.6851 41.5795 52.4806 41.7568 53.1719 42.0908L54.0419 40.2899ZM50.766 39.5795C49.5076 39.5795 48.3592 39.8418 47.3534 40.4019L48.3263 42.1493C48.9872 41.7813 49.7895 41.5795 50.766 41.5795V39.5795ZM47.3568 40.4C46.3677 40.9457 45.5924 41.721 45.0467 42.7101L46.7978 43.6763C47.1612 43.0176 47.6643 42.5145 48.3229 42.1511L47.3568 40.4ZM45.0424 42.7179C44.5052 43.7123 44.2546 44.8474 44.2546 46.0909H46.2546C46.2546 45.1185 46.4491 44.3218 46.8021 43.6685L45.0424 42.7179ZM45.2546 45.0909H41.9023V47.0909H45.2546V45.0909ZM42.9023 46.0909C42.9023 44.5457 43.2567 43.2346 43.9349 42.1232L42.2277 41.0813C41.334 42.5457 40.9023 44.227 40.9023 46.0909H42.9023ZM43.9349 42.1232C44.626 40.9909 45.5622 40.111 46.7609 39.4739L45.8222 37.7079C44.3126 38.5102 43.1087 39.6379 42.2277 41.0813L43.9349 42.1232ZM46.7583 39.4753C47.9642 38.8389 49.3307 38.5114 50.8796 38.5114V36.5114C49.0383 36.5114 47.3462 36.9036 45.8248 37.7065L46.7583 39.4753ZM50.8796 38.5114C52.4396 38.5114 53.781 38.8395 54.9311 39.4683L55.8906 37.7135C54.4082 36.903 52.7287 36.5114 50.8796 36.5114V38.5114ZM54.9311 39.4683C56.1017 40.1084 57.0022 40.9596 57.6547 42.0251L59.3602 40.9806C58.5166 39.6029 57.3526 38.5129 55.8906 37.7135L54.9311 39.4683ZM57.6547 42.0251C58.3021 43.0823 58.6296 44.2591 58.6296 45.5795H60.6296C60.6296 43.9076 60.209 42.3665 59.3602 40.9806L57.6547 42.0251ZM58.6296 45.5795C58.6296 46.5256 58.4585 47.4519 58.1123 48.3638L59.9821 49.0737C60.4124 47.9401 60.6296 46.7736 60.6296 45.5795H58.6296ZM58.1105 48.3686C57.7772 49.2602 57.1737 50.3056 56.2615 51.5098L57.8557 52.7175C58.8374 51.4216 59.5596 50.2038 59.9839 49.0689L58.1105 48.3686ZM56.2608 51.5107C55.3521 52.7131 54.0754 54.2005 52.4205 55.9776L53.8842 57.3406C55.5626 55.5382 56.8901 53.9952 57.8564 52.7166L56.2608 51.5107ZM52.4219 55.9761L45.8878 62.9648L47.3487 64.3307L53.8828 57.342L52.4219 55.9761ZM45.6183 63.6477V63.875H47.6183V63.6477H45.6183ZM46.6183 64.875H60.141V62.875H46.6183V64.875ZM59.141 63.875V67H61.141V63.875H59.141ZM60.141 66H41.7887V68H60.141V66ZM66.5181 66.5007L67.2252 65.7936L67.2252 65.7936L66.5181 66.5007ZM66.5181 63.0732L65.811 62.366L66.5181 63.0732ZM69.9457 63.0732L70.6528 62.366L70.6528 62.366L69.9457 63.0732ZM70.3235 66.0014L69.4697 65.4808L69.465 65.4885L69.4605 65.4962L70.3235 66.0014ZM69.4464 66.892L69.9609 67.7496L69.967 67.7458L69.4464 66.892ZM68.2319 66.2159C67.8352 66.2159 67.5172 66.0856 67.2252 65.7936L65.811 67.2078C66.4726 67.8694 67.2971 68.2159 68.2319 68.2159V66.2159ZM67.2252 65.7936C66.9332 65.5016 66.8029 65.1836 66.8029 64.7869H64.8029C64.8029 65.7217 65.1494 66.5462 65.811 67.2078L67.2252 65.7936ZM66.8029 64.7869C66.8029 64.3902 66.9332 64.0722 67.2252 63.7803L65.811 62.366C65.1494 63.0277 64.8029 63.8522 64.8029 64.7869H66.8029ZM67.2252 63.7803C67.5172 63.4883 67.8352 63.358 68.2319 63.358V61.358C67.2971 61.358 66.4726 61.7044 65.811 62.366L67.2252 63.7803ZM68.2319 63.358C68.6286 63.358 68.9466 63.4883 69.2386 63.7803L70.6528 62.366C69.9912 61.7044 69.1666 61.358 68.2319 61.358V63.358ZM69.2386 63.7803C69.5305 64.0722 69.6609 64.3902 69.6609 64.7869H71.6609C71.6609 63.8522 71.3144 63.0277 70.6528 62.366L69.2386 63.7803ZM69.6609 64.7869C69.6609 65.048 69.597 65.2721 69.4697 65.4808L71.1773 66.522C71.4999 65.993 71.6609 65.4075 71.6609 64.7869H69.6609ZM69.4605 65.4962C69.3291 65.7208 69.155 65.8985 68.9258 66.0382L69.967 67.7458C70.4754 67.4358 70.8861 67.0198 71.1865 66.5066L69.4605 65.4962ZM68.9319 66.0346C68.7386 66.1505 68.514 66.2159 68.2319 66.2159V68.2159C68.8494 68.2159 69.4344 68.0654 69.9609 67.7495L68.9319 66.0346ZM79.7223 66.5455L79.3184 67.4602L79.3206 67.4612L79.7223 66.5455ZM76.9382 64.3977L76.1335 64.9914L76.139 64.9988L76.9382 64.3977ZM75.8246 61.1818V60.1818H74.7737L74.8258 61.2314L75.8246 61.1818ZM78.6882 61.1818L79.685 61.1013L79.6107 60.1818H78.6882V61.1818ZM79.4609 63.125L78.6927 63.7652L78.6971 63.7705L79.4609 63.125ZM81.245 64.375L80.872 65.3028L80.872 65.3028L81.245 64.375ZM88.1655 62.8409L87.3491 62.2634L87.3491 62.2634L88.1655 62.8409ZM88.1882 58.4205L87.3473 58.9617L87.3502 58.9661L88.1882 58.4205ZM86.3246 56.875L85.9114 57.7857L85.9114 57.7857L86.3246 56.875ZM81.4609 56.3182H80.4609V57.3182H81.4609V56.3182ZM81.4609 53.8182V52.8182H80.4609V53.8182H81.4609ZM85.7564 53.3182L85.3287 52.4142L85.3249 52.416L85.7564 53.3182ZM87.4041 51.9091L86.5704 51.3568L86.5657 51.3641L87.4041 51.9091ZM87.4837 47.7159L88.3421 47.2031L88.3421 47.2031L87.4837 47.7159ZM86.0064 46.3523L85.5464 47.2402L85.5507 47.2424L86.0064 46.3523ZM81.5064 46.3068L81.8846 47.2325L81.8896 47.2305L81.5064 46.3068ZM79.7791 47.5682L80.5526 48.202L80.5569 48.1968L79.7791 47.5682ZM79.0518 49.5455V50.5455H80.004L80.0506 49.5944L79.0518 49.5455ZM76.3246 49.5455L75.3253 49.5082L75.2866 50.5455H76.3246V49.5455ZM77.4268 46.3409L78.2261 46.942L78.2284 46.9388L77.4268 46.3409ZM80.1314 44.1818L79.7139 43.2731L79.7116 43.2742L80.1314 44.1818ZM87.5291 44.2841L87.0364 45.1543L87.0413 45.157L87.5291 44.2841ZM89.9041 46.5682L89.0406 47.0725L89.0406 47.0725L89.9041 46.5682ZM89.6996 52.9886L88.898 52.3907L88.8948 52.395L89.6996 52.9886ZM86.9155 54.9091L86.6253 53.9521L85.9155 54.1674V54.9091H86.9155ZM86.9155 55.0909H85.9155V55.9395L86.7527 56.0776L86.9155 55.0909ZM90.3587 56.9659L89.5852 57.5998L89.5876 57.6026L90.3587 56.9659ZM90.5632 64.0909L89.7379 63.5262L89.737 63.5276L90.5632 64.0909ZM87.7678 66.4545L88.2057 67.3535L88.2057 67.3535L87.7678 66.4545ZM83.7337 66.3182C82.3487 66.3182 81.152 66.0807 80.124 65.6297L79.3206 67.4612C80.6411 68.0405 82.1186 68.3182 83.7337 68.3182V66.3182ZM80.1262 65.6307C79.0981 65.1767 78.3129 64.5619 77.7374 63.7967L76.139 64.9988C76.9423 66.0669 78.0132 66.8839 79.3184 67.4602L80.1262 65.6307ZM77.7429 63.8041C77.1854 63.0484 76.8748 62.1685 76.8233 61.1322L74.8258 61.2314C74.8955 62.6346 75.3274 63.8986 76.1335 64.9914L77.7429 63.8041ZM75.8246 62.1818H78.6882V60.1818H75.8246V62.1818ZM77.6915 61.2624C77.7676 62.205 78.098 63.0515 78.6927 63.7652L80.2292 62.4848C79.9148 62.1076 79.73 61.6586 79.685 61.1013L77.6915 61.2624ZM78.6971 63.7705C79.2695 64.4478 80.0049 64.9542 80.872 65.3028L81.6181 63.4472C81.0154 63.2049 80.5615 62.878 80.2247 62.4795L78.6971 63.7705ZM80.872 65.3028C81.7397 65.6517 82.6828 65.8182 83.6882 65.8182V63.8182C82.9057 63.8182 82.22 63.6892 81.6181 63.4472L80.872 65.3028ZM83.6882 65.8182C84.8048 65.8182 85.8353 65.6233 86.7584 65.207L85.9362 63.3839C85.3138 63.6645 84.5716 63.8182 83.6882 63.8182V65.8182ZM86.7584 65.207C87.6746 64.7939 88.4282 64.2012 88.9819 63.4184L87.3491 62.2634C87.024 62.723 86.5655 63.1001 85.9362 63.3839L86.7584 65.207ZM88.9819 63.4184C89.5499 62.6154 89.8246 61.6904 89.8246 60.6818H87.8246C87.8246 61.3096 87.6599 61.824 87.3491 62.2634L88.9819 63.4184ZM89.8246 60.6818C89.8246 59.6524 89.5668 58.7049 89.0262 57.8748L87.3502 58.9661C87.6582 59.439 87.8246 59.9992 87.8246 60.6818H89.8246ZM89.0291 57.8792C88.4862 57.0358 87.7048 56.4031 86.7377 55.9643L85.9114 57.7857C86.5807 58.0893 87.0418 58.487 87.3473 58.9617L89.0291 57.8792ZM86.7377 55.9643C85.7557 55.5188 84.606 55.3182 83.3246 55.3182V57.3182C84.4068 57.3182 85.2571 57.4888 85.9114 57.7857L86.7377 55.9643ZM83.3246 55.3182H81.4609V57.3182H83.3246V55.3182ZM82.4609 56.3182V53.8182H80.4609V56.3182H82.4609ZM81.4609 54.8182H83.3246V52.8182H81.4609V54.8182ZM83.3246 54.8182C84.3692 54.8182 85.3323 54.6295 86.1878 54.2203L85.3249 52.416C84.7866 52.6735 84.1284 52.8182 83.3246 52.8182V54.8182ZM86.1841 54.2221C87.0425 53.816 87.7397 53.2277 88.2426 52.4541L86.5657 51.3641C86.2807 51.8026 85.8794 52.1537 85.3287 52.4142L86.1841 54.2221ZM88.2378 52.4614C88.761 51.6715 89.0064 50.7619 89.0064 49.7727H87.0064C87.0064 50.4199 86.8502 50.9345 86.5705 51.3568L88.2378 52.4614ZM89.0064 49.7727C89.0064 48.8335 88.7972 47.9647 88.3421 47.2031L86.6252 48.2288C86.8671 48.6338 87.0064 49.1362 87.0064 49.7727H89.0064ZM88.3421 47.2031C87.8923 46.4501 87.2563 45.8687 86.4621 45.4621L85.5507 47.2424C86.0292 47.4874 86.378 47.8151 86.6252 48.2288L88.3421 47.2031ZM86.4664 45.4644C85.6687 45.0511 84.7622 44.8636 83.7791 44.8636V46.8636C84.5082 46.8636 85.0865 47.0019 85.5464 47.2402L86.4664 45.4644ZM83.7791 44.8636C82.8501 44.8636 81.9618 45.0352 81.1232 45.3832L81.8896 47.2305C82.4752 46.9875 83.102 46.8636 83.7791 46.8636V44.8636ZM81.1281 45.3811C80.2788 45.7281 79.5618 46.2462 79.0014 46.9396L80.5569 48.1968C80.8904 47.7841 81.3249 47.4612 81.8846 47.2325L81.1281 45.3811ZM79.0056 46.9344C78.4096 47.6618 78.1003 48.5316 78.053 49.4965L80.0506 49.5944C80.0791 49.0138 80.2547 48.5655 80.5526 48.202L79.0056 46.9344ZM79.0518 48.5455H76.3246V50.5455H79.0518V48.5455ZM77.3239 49.5827C77.3622 48.5531 77.6674 47.6848 78.2261 46.942L76.6276 45.7399C75.8075 46.8303 75.3778 48.0984 75.3253 49.5082L77.3239 49.5827ZM78.2284 46.9388C78.8119 46.1565 79.5786 45.5393 80.5512 45.0894L79.7116 43.2742C78.4569 43.8546 77.4205 44.6768 76.6253 45.743L78.2284 46.9388ZM80.5489 45.0905C81.5281 44.6406 82.6151 44.4091 83.8246 44.4091V42.4091C82.3522 42.4091 80.9771 42.6927 79.7139 43.2731L80.5489 45.0905ZM83.8246 44.4091C85.1284 44.4091 86.1857 44.6726 87.0364 45.1543L88.0218 43.4139C86.812 42.7289 85.3996 42.4091 83.8246 42.4091V44.4091ZM87.0413 45.157C87.928 45.6525 88.5845 46.2915 89.0406 47.0725L90.7676 46.0639C90.1177 44.9509 89.1908 44.0671 88.0169 43.4111L87.0413 45.157ZM89.0406 47.0725C89.5041 47.8661 89.7337 48.7148 89.7337 49.6364H91.7337C91.7337 48.361 91.4102 47.1642 90.7676 46.0639L89.0406 47.0725ZM89.7337 49.6364C89.7337 50.7623 89.4413 51.6623 88.898 52.3907L90.5011 53.5865C91.3366 52.4664 91.7337 51.1317 91.7337 49.6364H89.7337ZM88.8948 52.395C88.3499 53.1337 87.6084 53.654 86.6253 53.9521L87.2057 55.8661C88.5711 55.452 89.6856 54.6921 90.5043 53.5823L88.8948 52.395ZM85.9155 54.9091V55.0909H87.9155V54.9091H85.9155ZM86.7527 56.0776C88.0194 56.2865 88.9354 56.8069 89.5852 57.5998L91.1321 56.332C90.1304 55.1097 88.751 54.3802 87.0782 54.1042L86.7527 56.0776ZM89.5876 57.6026C90.245 58.3987 90.5973 59.4027 90.5973 60.6818H92.5973C92.5973 59.0063 92.1239 57.5331 91.1298 56.3292L89.5876 57.6026ZM90.5973 60.6818C90.5973 61.7532 90.3092 62.6913 89.7379 63.5262L91.3885 64.6556C92.196 63.4754 92.5973 62.1407 92.5973 60.6818H90.5973ZM89.737 63.5276C89.1615 64.3716 88.3691 65.0492 87.3298 65.5556L88.2057 67.3535C89.5301 66.7083 90.6013 65.8102 91.3894 64.6542L89.737 63.5276ZM87.3298 65.5556C86.3031 66.0557 85.1118 66.3182 83.7337 66.3182V68.3182C85.3707 68.3182 86.8687 68.0049 88.2057 67.3535L87.3298 65.5556Z" fill="black"/>
</svg>
