<svg class="grayscale h-4 w-4" viewBox="0 0 1024 1024" xmlns="http://www.w3.org/2000/svg">
  <path
    fill="currentColor"
    d="M42.666667 512C42.666667 251.733333 251.733333 42.666667 512 42.666667s469.333333 187.733333 469.333333 422.4c0 72.533333-29.866667 145.066667-81.066666 200.533333-51.2 51.2-123.733333 81.066667-200.533334 81.066667h-85.333333c-12.8 0-25.6 12.8-29.866667 25.6 0 8.533333 4.266667 17.066667 8.533334 21.333333 21.333333 21.333333 29.866667 46.933333 29.866666 76.8 0 64-51.2 110.933333-115.2 115.2C251.733333 981.333333 42.666667 772.266667 42.666667 512z m85.333333 0c0 213.333333 170.666667 384 384 384 17.066667 0 29.866667-12.8 29.866667-29.866667 0-4.266667 0-8.533333-4.266667-12.8l-4.266667-4.266666c-17.066667-21.333333-25.6-46.933333-29.866666-76.8 0-64 51.2-110.933333 115.2-110.933334h85.333333c51.2 0 102.4-21.333333 136.533333-55.466666 38.4-38.4 55.466667-85.333333 55.466667-136.533334 0-187.733333-170.666667-341.333333-384-341.333333s-384 170.666667-384 384z m593.066667 21.333333c-21.333333-21.333333-25.6-51.2-17.066667-76.8 12.8-25.6 38.4-42.666667 64-42.666666 38.4 0 68.266667 34.133333 72.533333 72.533333 0 29.866667-17.066667 55.466667-42.666666 64-8.533333 4.266667-17.066667 4.266667-25.6 4.266667-17.066667 0-38.4-8.533333-51.2-21.333334z m-520.533334 0c-21.333333-21.333333-25.6-51.2-17.066666-76.8 12.8-25.6 38.4-42.666667 64-42.666666 38.4 0 68.266667 34.133333 72.533333 72.533333 0 29.866667-17.066667 55.466667-42.666667 64-8.533333 4.266667-17.066667 4.266667-25.6 4.266667-21.333333 0-38.4-8.533333-51.2-21.333334z m379.733334-187.733333c-21.333333-21.333333-25.6-51.2-17.066667-76.8 12.8-25.6 38.4-42.666667 64-42.666667 38.4 0 68.266667 34.133333 72.533333 72.533334 0 29.866667-17.066667 55.466667-42.666666 64-8.533333 4.266667-17.066667 4.266667-25.6 4.266666-21.333333 0-38.4-8.533333-51.2-21.333333zM341.333333 345.6c-17.066667-21.333333-25.6-51.2-12.8-76.8 12.8-25.6 38.4-42.666667 64-42.666667 38.4 0 68.266667 34.133333 72.533334 72.533334 0 29.866667-17.066667 55.466667-42.666667 64l-29.866667 4.266666c-17.066667 0-34.133333-8.533333-51.2-21.333333z"></path>
</svg>
